<svg width="1200" height="800" viewBox="0 0 1200 800" fill="none" xmlns="http://www.w3.org/2000/svg">
  <defs>
    <linearGradient id="bg" x1="0" y1="0" x2="1" y2="1">
      <stop offset="0%" stop-color="#fff1e4" />
      <stop offset="55%" stop-color="#f7d8c8" />
      <stop offset="100%" stop-color="#d8f0f1" />
    </linearGradient>
    <linearGradient id="glass" x1="0" y1="0" x2="0" y2="1">
      <stop offset="0%" stop-color="#e0f2fe" stop-opacity="0.9" />
      <stop offset="100%" stop-color="#bae6fd" stop-opacity="0.6" />
    </linearGradient>
    <linearGradient id="awning" x1="0" y1="0" x2="1" y2="0">
      <stop offset="0%" stop-color="#ff6b35" />
      <stop offset="50%" stop-color="#ff9a62" />
      <stop offset="100%" stop-color="#f7b32b" />
    </linearGradient>
  </defs>
  <rect width="1200" height="800" rx="64" fill="url(#bg)" />
  <rect x="110" y="140" width="980" height="520" rx="36" fill="#ffffff" stroke="#e2e8f0" stroke-width="6" />
  <rect x="110" y="140" width="980" height="130" rx="36" fill="url(#awning)" />
  <rect x="110" y="250" width="980" height="30" fill="#f97316" opacity="0.25" />
  <rect x="170" y="310" width="360" height="270" rx="26" fill="url(#glass)" stroke="#bae6fd" stroke-width="4" />
  <rect x="560" y="310" width="180" height="270" rx="24" fill="#f8fafc" stroke="#e2e8f0" stroke-width="4" />
  <rect x="780" y="310" width="250" height="270" rx="26" fill="url(#glass)" stroke="#bae6fd" stroke-width="4" />
  <rect x="600" y="340" width="100" height="140" rx="12" fill="#fde68a" />
  <rect x="610" y="360" width="80" height="8" rx="4" fill="#f59e0b" />
  <rect x="610" y="382" width="80" height="8" rx="4" fill="#f59e0b" />
  <rect x="610" y="404" width="80" height="8" rx="4" fill="#f59e0b" />
  <rect x="600" y="500" width="100" height="60" rx="10" fill="#0f172a" />
  <rect x="590" y="520" width="120" height="20" rx="10" fill="#0f172a" />
  <rect x="250" y="340" width="220" height="20" rx="10" fill="#93c5fd" />
  <rect x="250" y="370" width="180" height="14" rx="7" fill="#cbd5f5" />
  <rect x="820" y="340" width="160" height="16" rx="8" fill="#bae6fd" />
  <rect x="820" y="368" width="140" height="12" rx="6" fill="#cfe8ff" />
  <text x="600" y="205" text-anchor="middle" font-family="Space Grotesk, Arial, sans-serif" font-size="38" fill="#ffffff" font-weight="700">
    DEV MOBILE
  </text>
  <text x="600" y="240" text-anchor="middle" font-family="Space Grotesk, Arial, sans-serif" font-size="14" fill="#fff7ed" letter-spacing="2">
    COMMUNICATION
  </text>
  <circle cx="1010" cy="215" r="34" fill="rgba(255,255,255,0.3)" />
  <circle cx="1010" cy="215" r="16" fill="rgba(255,255,255,0.7)" />
  <circle cx="200" cy="530" r="40" fill="rgba(255,107,53,0.2)" />
  <circle cx="200" cy="530" r="20" fill="rgba(255,107,53,0.5)" />
</svg>
